# xmcd
#
# Track frame offsets: 
#        150
#        14745
#        28942
#        41084
#        52118
#        68681
#        82429
#        98551
#        114065
#        135050
#        149457
#        165287
#
# Disc length: 2425 seconds
#
# Revision: 0
# Processed by: cddbd v1.5.2PL0 Copyright (c) Steve Scherf et al.
# Submitted via: ExactAudioCopy v0.99pb4
#
DISCID=9d09770c
DTITLE=Jeff Cook and the Allstar Goodtime Band - Cruise Control
DYEAR=2012
DGENRE=Country
TTITLE0=Life In The Slow Lane
TTITLE1=Well (Baby Please Don't Go)
TTITLE2=She Even Woke Me Up To Say Goodbye
TTITLE3=All Day And All Of The Night
TTITLE4=One Man Band
TTITLE5=I'm Gonna Miss Her
TTITLE6=Party On Dude - Medley(Louie Louie-Hang On Sloopy-I'm A Fool)
TTITLE7=One In The World
TTITLE8=Red River
TTITLE9=A Hundred Years From Now
TTITLE10=She Went To Harvard
TTITLE11=Drink More Beer
EXTD=
EXTT0=
EXTT1=
EXTT2=
EXTT3=
EXTT4=
EXTT5=
EXTT6=
EXTT7=
EXTT8=
EXTT9=
EXTT10=
EXTT11=
PLAYORDER=
